<?xml version="1.0" encoding="UTF-8"?>
<svg version="1.1" xmlns="http://www.w3.org/2000/svg" width="500" height="500">
<path d="M0 0 C2.26868315 3.40302472 2.29944403 4.82312418 2.45703125 8.8359375 C2.51511963 10.03202637 2.57320801 11.22811523 2.63305664 12.46044922 C2.69227295 13.75225098 2.75148926 15.04405273 2.8125 16.375 C3.57519094 30.8814304 5.77355649 44.82751056 8.48095703 59.10449219 C9.13047099 62.72783911 9.59998622 66.341447 10 70 C61.26040268 61.78622309 109.93727575 47.1235127 154 19 C155.294131 22.88239301 154.42623271 24.37917756 153.0859375 28.21484375 C152.43818359 30.08172852 152.43818359 30.08172852 151.77734375 31.98632812 C151.43098877 32.96194702 151.43098877 32.96194702 151.07763672 33.95727539 C150.38972007 35.89601478 149.71511237 37.83894708 149.04296875 39.78320312 C146.30444807 47.64335297 143.29959537 55.35822259 140 63 C146.90799382 61.05289164 153.55414292 58.73626743 160.1875 56 C161.12005615 55.6177124 162.0526123 55.2354248 163.01342773 54.84155273 C173.08391039 50.64950154 182.88893323 45.91592349 192.67016602 41.09399414 C195.07979799 39.96253015 197.51954431 38.96497285 200 38 C197.70175036 47.10544621 193.8597477 55.4768311 190 64 C209.40868208 57.8151911 229.41482012 48.95045906 246.80078125 38.28125 C249 37 249 37 251 37 C250.34991145 40.88760971 249.19790025 44.27634761 247.69921875 47.91796875 C246.98463501 49.65602783 246.98463501 49.65602783 246.25561523 51.42919922 C245.7334904 52.68220809 245.21076993 53.9349689 244.6875 55.1875 C244.42156036 55.82737854 244.15562073 56.46725708 243.88162231 57.12652588 C238.71671194 69.53747848 233.1964718 81.7685708 227.45263672 93.92285156 C226.03259522 96.93095291 224.6267633 99.94537212 223.22265625 102.9609375 C217.41738515 115.35126124 211.12820282 127.40102103 204.46875 139.35205078 C203.03677239 141.93370456 201.6243614 144.52500536 200.21875 147.12109375 C196.5054203 153.96283567 192.78103094 160.77369253 188.71484375 167.4140625 C188.16828125 168.30722168 187.62171875 169.20038086 187.05859375 170.12060547 C186.01011772 171.82122095 184.95212453 173.51602127 183.8828125 175.20361328 C183.40457031 175.97688965 182.92632812 176.75016602 182.43359375 177.546875 C181.80022095 178.54992676 181.80022095 178.54992676 181.15405273 179.57324219 C177.97437248 186.25951715 177.39717839 193.76310336 176.52734375 201.02734375 C176.39936905 202.05686661 176.27139435 203.08638947 176.13954163 204.14710999 C175.73418573 207.41001659 175.33515494 210.67364653 174.9375 213.9375 C174.53602726 217.22631288 174.13308144 220.51490337 173.7247467 223.8028717 C173.47134512 225.84341494 173.22192121 227.8844567 172.97679138 229.92601013 C172.86319778 230.84108841 172.74960419 231.75616669 172.63256836 232.69897461 C172.48506386 233.91187416 172.48506386 233.91187416 172.33457947 235.14927673 C172 237 172 237 171 238 C169.18596499 238.09750308 167.36808216 238.123714 165.55142879 238.12304783 C163.76668538 238.1260344 163.76668538 238.1260344 161.94588655 238.12908131 C160.6086131 238.12622772 159.27133984 238.12328212 157.93406677 238.12025452 C156.5266466 238.12069009 155.1192265 238.12156475 153.71180683 238.12284368 C149.82611926 238.12509128 145.94045898 238.12106376 142.05477488 238.11606562 C137.87138595 238.11176509 133.68799867 238.11320726 129.50460815 238.1139679 C122.25055511 238.11449338 114.99651104 238.111344 107.74246025 238.10573006 C97.25419609 238.09761841 86.76593628 238.09500018 76.27766932 238.09374207 C59.26299128 238.09155102 42.24831802 238.0848895 25.23364258 238.07543945 C8.70109074 238.0662667 -7.8314598 238.0591852 -24.36401367 238.05493164 C-25.89146782 238.05453756 -25.89146782 238.05453756 -27.44977964 238.05413551 C-32.55807729 238.05283051 -37.66637496 238.0515668 -42.77467263 238.05032361 C-85.1831184 238.03994935 -127.59155895 238.0223296 -170 238 C-170.32340206 235.9374167 -170.64508357 233.87456358 -170.96604919 231.81159973 C-171.14537208 230.66287793 -171.32469496 229.51415613 -171.50945187 228.33062458 C-172.14661333 224.00455446 -172.57720178 219.67753609 -172.97265625 215.32421875 C-173.15095133 213.57075456 -173.3313562 211.81750384 -173.51367188 210.06445312 C-173.79277056 207.38066167 -174.06157089 204.69821454 -174.29467773 202.01000977 C-175.39735947 189.4880891 -177.96159296 180.20936604 -184.90090942 169.67404175 C-186.42405473 167.35411573 -187.8229392 164.96558156 -189.23046875 162.57421875 C-189.71612305 161.77201904 -190.20177734 160.96981934 -190.70214844 160.14331055 C-198.21298522 147.72524559 -204.86520823 134.9179721 -211.45751953 121.99511719 C-213.13538148 118.7371225 -214.86579529 115.51164717 -216.61523438 112.29174805 C-225.48376465 95.92171732 -232.76075093 78.76115729 -240 61.625 C-240.27944458 60.96723572 -240.55888916 60.30947144 -240.84680176 59.6317749 C-243.99588561 52.20301768 -246.9216556 44.80974371 -249 37 C-244.85866155 38.56868881 -240.9409037 40.49284706 -237 42.5 C-221.26593398 50.41494654 -205.53692934 57.9021335 -189 64 C-189.68453725 60.96195847 -190.666311 58.18434277 -191.84765625 55.3046875 C-192.20537109 54.42425781 -192.56308594 53.54382813 -192.93164062 52.63671875 C-193.6888475 50.78751231 -194.44666534 48.93855594 -195.20507812 47.08984375 C-195.56150391 46.21199219 -195.91792969 45.33414063 -196.28515625 44.4296875 C-196.61394775 43.62772949 -196.94273926 42.82577148 -197.28149414 41.99951172 C-198 40 -198 40 -198 38 C-193.54422494 39.34073471 -189.78678374 41.1369159 -185.75 43.4375 C-178.62655019 47.36857522 -171.24300449 50.59111153 -163.75 53.75 C-162.66170898 54.20947021 -161.57341797 54.66894043 -160.45214844 55.14233398 C-149.55188051 60.45917549 -149.55188051 60.45917549 -138 63 C-138.41511841 61.93640259 -138.41511841 61.93640259 -138.83862305 60.85131836 C-148.11827507 37.02936045 -148.11827507 37.02936045 -151.1875 28.0625 C-151.57292969 26.93972656 -151.95835937 25.81695312 -152.35546875 24.66015625 C-153 22 -153 22 -152 19 C-151.39341553 19.36649658 -150.78683105 19.73299316 -150.16186523 20.1105957 C-107.70350319 45.63817322 -62.1988165 62.24257219 -13 69 C-9.03845025 54.80975428 -6.07222081 40.58825638 -3.6875 26.0625 C-3.55889587 25.28241577 -3.43029175 24.50233154 -3.29779053 23.6986084 C-2.00648094 15.81894651 -0.76887317 7.95105315 0 0 Z " fill="#470B14" transform="translate(249,142)"/>
<path d="M0 0 C4.66481016 2.26783129 9.15746941 4.63705711 13.57714844 7.34814453 C51.62887256 30.62277264 96.01646849 43.95888844 140 50 C139.25 57.625 139.25 57.625 137 61 C136.61714231 63.155347 136.31506543 65.32553193 136.0625 67.5 C134.02816333 82.957755 134.02816333 82.957755 130 89 C129.34 89 128.68 89 128 89 C128.33 90.65 128.66 92.3 129 94 C128.01 94.33 127.02 94.66 126 95 C125.46312716 96.87905494 124.94282936 98.76536706 124.53125 100.67578125 C123.25300389 106.26810798 121.21576823 111.71624499 119 117 C118.34 117 117.68 117 117 117 C116.814375 118.0828125 116.814375 118.0828125 116.625 119.1875 C116.0095069 121.95721894 115.11555626 124.3970354 114 127 C113.34 127 112.68 127 112 127 C112 128.32 112 129.64 112 131 C99.14387708 131.09256824 86.28783308 131.16369811 73.43144512 131.20724869 C67.46207112 131.22814791 61.49292466 131.25650848 55.52368164 131.30175781 C49.76598173 131.34513178 44.00850105 131.3691195 38.25065041 131.37950897 C36.05092732 131.38691551 33.8512166 131.40137824 31.65158653 131.42292023 C28.57694688 131.45184148 25.50321998 131.45596068 22.4284668 131.45410156 C21.51352951 131.46848267 20.59859222 131.48286377 19.65592957 131.49768066 C13.51908576 131.45737081 13.51908576 131.45737081 10.91072083 129.15911865 C10 127 10 127 10 124 C8.515 123.505 8.515 123.505 7 123 C5.61206055 120.89599609 5.61206055 120.89599609 4.19921875 118.1484375 C3.67763184 117.15166992 3.15604492 116.15490234 2.61865234 115.12792969 C2.08449707 114.09571289 1.5503418 113.06349609 1 112 C-0.0304947 110.09382671 -1.06557019 108.19012192 -2.10546875 106.2890625 C-3.65900267 103.43402551 -5.21249491 100.57897467 -6.76367188 97.72265625 C-7.52067383 96.33240234 -7.52067383 96.33240234 -8.29296875 94.9140625 C-8.96622192 93.6758374 -8.96622192 93.6758374 -9.65307617 92.41259766 C-10.61509985 90.68942964 -11.62643366 88.99341814 -12.66918945 87.31787109 C-14 85 -14 85 -14 83 C-14.66 83 -15.32 83 -16 83 C-15.566875 83.83144531 -15.13375 84.66289062 -14.6875 85.51953125 C-14.130625 86.60621094 -13.57375 87.69289063 -13 88.8125 C-12.443125 89.89144531 -11.88625 90.97039062 -11.3125 92.08203125 C-10 95 -10 95 -10 98 C-9.34 98 -8.68 98 -8 98 C-7.484375 99.0725 -6.96875 100.145 -6.4375 101.25 C-3.56660833 106.99178333 -0.27723734 112.48343563 3 118 C3.54269531 118.9178125 4.08539063 119.835625 4.64453125 120.78125 C6.80690136 124.41622153 8.97627133 128.01553099 11.375 131.5 C13 134 13 134 13 136 C14.65 136 16.3 136 18 136 C18.86980515 152.33011616 19.18635537 168.62564646 19.18530273 184.97827148 C19.18753914 188.88079993 19.20592329 192.78306631 19.22460938 196.68554688 C19.22753539 199.17187405 19.22952547 201.65820254 19.23046875 204.14453125 C19.23765427 205.30886185 19.24483978 206.47319244 19.25224304 207.67280579 C19.24916641 208.73960068 19.24608978 209.80639557 19.24291992 210.90551758 C19.24434494 211.84430252 19.24576996 212.78308746 19.24723816 213.75032043 C19 216 19 216 17 218 C14.42420615 218.24529581 11.94770993 218.37341793 9.3671875 218.4140625 C8.23943405 218.44311172 8.23943405 218.44311172 7.08889771 218.4727478 C4.68438101 218.53259147 2.27981656 218.57894726 -0.125 218.625 C-1.75392728 218.66317546 -3.38283428 218.70222693 -5.01171875 218.7421875 C-9.00764806 218.83829666 -13.00367187 218.92230941 -17 219 C-18.29276182 211.45701584 -19.23937509 203.93820513 -19.97265625 196.32421875 C-20.24325478 193.67622109 -20.51739897 191.02861363 -20.79272461 188.38110352 C-20.97192176 186.5918889 -21.1393333 184.80145294 -21.29467773 183.01000977 C-22.39735947 170.4880891 -24.96159296 161.20936604 -31.90090942 150.67404175 C-33.42405473 148.35411573 -34.8229392 145.96558156 -36.23046875 143.57421875 C-36.71612305 142.77201904 -37.20177734 141.96981934 -37.70214844 141.14331055 C-45.21298522 128.72524559 -51.86520823 115.9179721 -58.45751953 102.99511719 C-60.13538148 99.7371225 -61.86579529 96.51164717 -63.61523438 93.29174805 C-72.48376465 76.92171732 -79.76075093 59.76115729 -87 42.625 C-87.27944458 41.96723572 -87.55888916 41.30947144 -87.84680176 40.6317749 C-90.99588561 33.20301768 -93.9216556 25.80974371 -96 18 C-91.85866155 19.56868881 -87.9409037 21.49284706 -84 23.5 C-68.26593398 31.41494654 -52.53692934 38.9021335 -36 45 C-36.68453725 41.96195847 -37.666311 39.18434277 -38.84765625 36.3046875 C-39.20537109 35.42425781 -39.56308594 34.54382813 -39.93164062 33.63671875 C-40.6888475 31.78751231 -41.44666534 29.93855594 -42.20507812 28.08984375 C-42.56150391 27.21199219 -42.91792969 26.33414063 -43.28515625 25.4296875 C-43.61394775 24.62772949 -43.94273926 23.82577148 -44.28149414 22.99951172 C-45 21 -45 21 -45 19 C-40.54422494 20.34073471 -36.78678374 22.1369159 -32.75 24.4375 C-25.62655019 28.36857522 -18.24300449 31.59111153 -10.75 34.75 C-9.66170898 35.20947021 -8.57341797 35.66894043 -7.45214844 36.14233398 C3.44811949 41.45917549 3.44811949 41.45917549 15 44 C14.58488159 42.93640259 14.58488159 42.93640259 14.16137695 41.85131836 C0 5.49739854 0 5.49739854 0 0 Z " fill="#69050F" transform="translate(96,161)"/>
<path d="M0 0 C1.294131 3.88239301 0.42623271 5.37917756 -0.9140625 9.21484375 C-1.34589844 10.45943359 -1.77773438 11.70402344 -2.22265625 12.98632812 C-2.45355957 13.63674072 -2.68446289 14.28715332 -2.92236328 14.95727539 C-3.61027993 16.89601478 -4.28488763 18.83894708 -4.95703125 20.78320312 C-7.69555193 28.64335297 -10.70040463 36.35822259 -14 44 C-7.09200618 42.05289164 -0.44585708 39.73626743 6.1875 37 C7.12005615 36.6177124 8.0526123 36.2354248 9.01342773 35.84155273 C19.08391039 31.64950154 28.88893323 26.91592349 38.67016602 22.09399414 C41.07979799 20.96253015 43.51954431 19.96497285 46 19 C44.380698 25.4155203 42.09047682 31.48706157 39.5 37.5625 C39.20343506 38.27728516 38.90687012 38.99207031 38.60131836 39.72851562 C37.81856539 41.52484166 36.91690372 43.26830229 36 45 C35.01 45.33 34.02 45.66 33 46 C29.30330243 51.63195931 27.12043459 58.18076672 24.9140625 64.50390625 C23.82238137 67.4850355 22.50787408 70.21043295 21 73 C20.34 73 19.68 73 19 73 C18.938125 73.78375 18.87625 74.5675 18.8125 75.375 C17.6967665 80.35288793 15.39693773 84.52453694 13 89 C12.34 89 11.68 89 11 89 C10.90589844 89.51046875 10.81179688 90.0209375 10.71484375 90.546875 C9.71729761 93.9701481 8.15405123 97.07303809 6.5625 100.25 C6.21485596 100.94657715 5.86721191 101.6431543 5.5090332 102.36083984 C2.47133938 108.31869966 -0.95685009 113.98063117 -4.58569336 119.59472656 C-4.98667236 120.21573242 -5.38765137 120.83673828 -5.80078125 121.4765625 C-6.15309814 122.01361816 -6.50541504 122.55067383 -6.8684082 123.10400391 C-8.39079152 125.65477604 -9.67153551 128.34307103 -11 131 C-44.99 131 -78.98 131 -114 131 C-115.35439668 128.29120665 -115.06501451 125.99066732 -115 123 C-115.99 123 -116.98 123 -118 123 C-118.8125 120.96875 -118.8125 120.96875 -119.625 118.9375 C-119.98722656 118.03773438 -120.34945313 117.13796875 -120.72265625 116.2109375 C-121.66334841 113.84626178 -122.58622015 111.47802013 -123.49609375 109.1015625 C-123.75503418 108.43390869 -124.01397461 107.76625488 -124.28076172 107.07836914 C-124.79517649 105.75184736 -125.30349294 104.42294182 -125.80517578 103.09155273 C-127.12498299 99.71258145 -128.38733345 97.47439172 -131 95 C-131.7734375 93.01171875 -131.7734375 93.01171875 -132.375 90.6875 C-133.52447249 86.53862271 -134.8750763 82.53573219 -136.375 78.5 C-138.43688697 72.80944265 -140.19398561 67.08177146 -141.8125 61.25 C-142.03147949 60.46302734 -142.25045898 59.67605469 -142.47607422 58.86523438 C-144 53.27054795 -144 53.27054795 -144 51 C-143.12714355 50.86013672 -142.25428711 50.72027344 -141.35498047 50.57617188 C-91.02966912 42.3978979 -43.24167477 27.59946894 0 0 Z " fill="#69050F" transform="translate(403,161)"/>
<path d="M0 0 C0.75698181 0.01121384 1.51396362 0.02242767 2.29388428 0.03398132 C3.92478525 0.05884262 5.55564942 0.08622238 7.18647003 0.1158905 C9.76697759 0.16271873 12.34751267 0.20265345 14.92816162 0.24084473 C20.39980483 0.32305502 25.87128605 0.41393283 31.34277344 0.50585938 C37.69861607 0.61234542 44.05447938 0.71527921 50.41051483 0.80961609 C52.95380118 0.84914931 55.49692495 0.89497081 58.0401001 0.94104004 C59.59443711 0.96490239 61.14877857 0.98847765 62.703125 1.01171875 C63.76448669 1.03349434 63.76448669 1.03349434 64.84729004 1.05570984 C67.89989254 1.09553729 70.16833963 0.98067065 73.09277344 0.00585938 C72.04509286 4.44070143 70.55215614 8.6911627 69.09277344 13.00585938 C73.05277344 13.99585938 77.01277344 14.98585938 81.09277344 16.00585938 C81.82261003 20.38487891 82.21533451 23.93142279 82.20629883 28.28662109 C82.20618553 30.11784012 82.20618553 30.11784012 82.20606995 31.98605347 C82.20090866 33.28938629 82.19574738 34.59271912 82.19042969 35.93554688 C82.18856244 37.294606 82.18713999 38.65366579 82.18614197 40.01272583 C82.18234091 43.57354623 82.17253146 47.13432524 82.16143799 50.69512939 C82.15117179 54.33515869 82.14663323 57.97519474 82.14160156 61.61523438 C82.13090682 68.74546117 82.11332978 75.8756532 82.09277344 83.00585938 C86.38277344 83.00585938 90.67277344 83.00585938 95.09277344 83.00585938 C95.09277344 62.54585938 95.09277344 42.08585937 95.09277344 21.00585938 C99.05277344 21.00585938 103.01277344 21.00585938 107.09277344 21.00585938 C108.09277344 22.00585938 108.09277344 22.00585938 108.21302795 24.44190979 C108.21080734 25.52334763 108.20858673 26.60478546 108.20629883 27.71899414 C108.2062233 28.94018448 108.20614777 30.16137482 108.20606995 31.41957092 C108.20096255 32.76213623 108.19574654 34.10470113 108.19042969 35.44726562 C108.18856543 36.81347095 108.18714156 38.17967695 108.18614197 39.54588318 C108.18231738 43.14787633 108.17248761 46.74982938 108.16143799 50.35180664 C108.1512226 54.02489682 108.14664407 57.69799347 108.14160156 61.37109375 C108.13086528 68.5827006 108.11378957 75.79427438 108.09277344 83.00585938 C109.74277344 83.00585938 111.39277344 83.00585938 113.09277344 83.00585938 C113.09277344 62.54585938 113.09277344 42.08585937 113.09277344 21.00585938 C117.05277344 21.00585938 121.01277344 21.00585938 125.09277344 21.00585938 C126.09277344 22.00585938 126.09277344 22.00585938 126.21302795 24.44190979 C126.21080734 25.52334763 126.20858673 26.60478546 126.20629883 27.71899414 C126.2062233 28.94018448 126.20614777 30.16137482 126.20606995 31.41957092 C126.20096255 32.76213623 126.19574654 34.10470113 126.19042969 35.44726562 C126.18856543 36.81347095 126.18714156 38.17967695 126.18614197 39.54588318 C126.18231738 43.14787633 126.17248761 46.74982938 126.16143799 50.35180664 C126.1512226 54.02489682 126.14664407 57.69799347 126.14160156 61.37109375 C126.13086528 68.5827006 126.11378957 75.79427438 126.09277344 83.00585938 C127.41277344 83.00585938 128.73277344 83.00585938 130.09277344 83.00585938 C130.09277344 62.54585938 130.09277344 42.08585937 130.09277344 21.00585938 C134.05277344 21.00585938 138.01277344 21.00585938 142.09277344 21.00585938 C143.09277344 22.00585938 143.09277344 22.00585938 143.21302795 24.44190979 C143.21080734 25.52334763 143.20858673 26.60478546 143.20629883 27.71899414 C143.2062233 28.94018448 143.20614777 30.16137482 143.20606995 31.41957092 C143.20096255 32.76213623 143.19574654 34.10470113 143.19042969 35.44726562 C143.18856543 36.81347095 143.18714156 38.17967695 143.18614197 39.54588318 C143.18231738 43.14787633 143.17248761 46.74982938 143.16143799 50.35180664 C143.1512226 54.02489672 143.14658937 57.69799346 143.14160156 61.37109375 C143.13139547 68.58271775 143.11182382 75.79423152 143.09277344 83.00585938 C153.32277344 83.00585938 163.55277344 83.00585938 174.09277344 83.00585938 C174.09277344 83.33585937 174.09277344 83.66585937 174.09277344 84.00585938 C102.15277344 84.00585938 30.21277344 84.00585938 -43.90722656 84.00585938 C-43.90722656 83.67585938 -43.90722656 83.34585938 -43.90722656 83.00585938 C-43.12484619 82.98080322 -42.34246582 82.95574707 -41.53637695 82.92993164 C-38.01397707 82.81436149 -34.49187096 82.69145988 -30.96972656 82.56835938 C-29.73802734 82.52904297 -28.50632812 82.48972656 -27.23730469 82.44921875 C-26.06748047 82.40732422 -24.89765625 82.36542969 -23.69238281 82.32226562 C-22.60836182 82.28560791 -21.52434082 82.2489502 -20.4074707 82.21118164 C-17.96796356 82.28221672 -17.96796356 82.28221672 -16.90722656 81.00585938 C-16.78932251 79.34852842 -16.73989212 77.68627468 -16.71777344 76.02490234 C-16.70105591 74.95803192 -16.68433838 73.8911615 -16.66711426 72.79196167 C-16.65353882 71.62246979 -16.63996338 70.45297791 -16.62597656 69.24804688 C-16.60756714 68.03883575 -16.58915771 66.82962463 -16.57019043 65.58377075 C-16.51123779 61.68285173 -16.45869507 57.78188382 -16.40722656 53.88085938 C-16.16729845 36.23829469 -15.79777555 18.62878629 -14.90722656 1.00585938 C-9.89349627 0.17246046 -5.08550505 -0.10554532 0 0 Z " fill="#45151C" transform="translate(130.9072265625,295.994140625)"/>
<path d="M0 0 C-0.65008855 3.88760971 -1.80209975 7.27634761 -3.30078125 10.91796875 C-3.77717041 12.0766748 -4.25355957 13.23538086 -4.74438477 14.42919922 C-5.2665096 15.68220809 -5.78923007 16.9349689 -6.3125 18.1875 C-6.71140945 19.14731781 -6.71140945 19.14731781 -7.11837769 20.12652588 C-12.28328806 32.53747848 -17.8035282 44.7685708 -23.54736328 56.92285156 C-24.96740478 59.93095291 -26.3732367 62.94537212 -27.77734375 65.9609375 C-33.56784401 78.31973549 -39.83738654 90.34268236 -46.47851562 102.26416016 C-48.58473239 106.05142991 -50.66881255 109.8507304 -52.75390625 113.6496582 C-54.83203453 117.43525644 -56.91573965 121.21777546 -59 125 C-59.66 125 -60.32 125 -61 125 C-61 124.34 -61 123.68 -61 123 C-61.66 123 -62.32 123 -63 123 C-64.4563173 126.44272214 -64.4563173 126.44272214 -65.3125 130.0625 C-66.36398134 133.0257656 -68.4852102 134.23964714 -71 136 C-71.33 136 -71.66 136 -72 136 C-72.33 137.65 -72.66 139.3 -73 141 C-86.53 141 -100.06 141 -114 141 C-114 133.41 -114 125.82 -114 118 C-112.02 118 -110.04 118 -108 118 C-108 116.68 -108 115.36 -108 114 C-107.34 114 -106.68 114 -106 114 C-105.773125 113.360625 -105.54625 112.72125 -105.3125 112.0625 C-102.67502291 105.90838679 -99.1288887 100.20748163 -95.75 94.4375 C-94.49937483 92.29203096 -93.24941564 90.14617363 -92 88 C-91.66484375 87.42958984 -91.3296875 86.85917969 -90.984375 86.27148438 C-84.43083558 75.0840057 -78.80628681 63.52454554 -73.30908203 51.78710938 C-72.07017553 49.14940765 -70.81747429 46.51884136 -69.55859375 43.890625 C-68.83060384 42.36464311 -68.1027315 40.83860514 -67.375 39.3125 C-67.0442749 38.62422119 -66.7135498 37.93594238 -66.37280273 37.22680664 C-64.62146334 33.59719072 -64.62146334 33.59719072 -63.69921875 29.703125 C-63 28 -63 28 -60.24609375 26.68359375 C-58.98057635 26.25615599 -57.710561 25.84191689 -56.4375 25.4375 C-38.66825545 19.28565932 -20.26394714 11.13966073 -4.19921875 1.28125 C-2 0 -2 0 0 0 Z " fill="#69040F" transform="translate(500,179)"/>
<path d="M0 0 C23.1 0 46.2 0 70 0 C70.67541574 8.10498892 71.14874845 15.94966733 71.1328125 24.046875 C71.13376923 25.14292053 71.13472595 26.23896606 71.13571167 27.3682251 C71.13638675 29.66394102 71.13457985 31.95965893 71.13037109 34.25537109 C71.12499243 37.75492645 71.13034969 41.2543547 71.13671875 44.75390625 C71.13605825 46.99739611 71.13477768 49.2408859 71.1328125 51.484375 C71.13483673 52.52100281 71.13686096 53.55763062 71.13894653 54.62567139 C71.12111805 60.17824708 70.82334203 65.50723756 70 71 C66.7 71 63.4 71 60 71 C59.67 50.87 59.34 30.74 59 10 C55.04 9.67 51.08 9.34 47 9 C47 29.46 47 49.92 47 71 C45.68 71 44.36 71 43 71 C42.67 50.87 42.34 30.74 42 10 C38.04 9.67 34.08 9.34 30 9 C30 29.46 30 49.92 30 71 C28.35 71 26.7 71 25 71 C24.67 50.87 24.34 30.74 24 10 C20.04 9.67 16.08 9.34 12 9 C12 29.46 12 49.92 12 71 C8.7 71 5.4 71 2 71 C-1.09318043 67.90681957 -0.08074934 59.46932868 -0.11352539 55.40039062 C-0.11327737 52.81900501 -0.10783236 50.23761557 -0.09765625 47.65625 C-0.09664917 46.44549805 -0.09564209 45.23474609 -0.09460449 43.98730469 C-0.08939714 39.49152674 -0.07543596 34.99576236 -0.0625 30.5 C-0.041875 20.435 -0.02125 10.37 0 0 Z " fill="#670510" transform="translate(214,308)"/>
<path d="M0 0 C2.16874252 0.50603992 3.99967627 0.99983813 6 2 C6 3.65 6 5.3 6 7 C6.99 7 7.98 7 9 7 C9.33 8.98 9.66 10.96 10 13 C24.19 13 38.38 13 53 13 C53.04191324 20.39070175 53.08198633 27.78097439 53.10350037 35.17169189 C53.11407164 38.61321078 53.12820344 42.05463152 53.15087891 45.49609375 C53.17672063 49.44269638 53.18646493 53.38925863 53.1953125 57.3359375 C53.20563507 58.57242035 53.21595764 59.8089032 53.22659302 61.08285522 C53.22681961 62.79440292 53.22681961 62.79440292 53.22705078 64.54052734 C53.231492 65.548685 53.23593323 66.55684265 53.24050903 67.59555054 C53 70 53 70 51 72 C48.42420615 72.24529581 45.94770993 72.37341793 43.3671875 72.4140625 C42.61535187 72.43342865 41.86351624 72.4527948 41.08889771 72.4727478 C38.68438101 72.53259147 36.27981656 72.57894726 33.875 72.625 C32.24607272 72.66317546 30.61716572 72.70222693 28.98828125 72.7421875 C24.99235194 72.83829666 20.99632813 72.92230941 17 73 C15.70723818 65.45701584 14.76062491 57.93820513 14.02734375 50.32421875 C13.75674522 47.67622109 13.48260103 45.02861363 13.20727539 42.38110352 C13.02807824 40.5918889 12.8606667 38.80145294 12.70532227 37.01000977 C11.6598784 25.13807537 9.4416642 16.16430834 2.96313477 6.06567383 C1 3 1 3 0 0 Z " fill="#44030D" transform="translate(62,307)"/>
<path d="M0 0 C1.0625 1.8125 1.0625 1.8125 2 4 C1.67 4.99 1.34 5.98 1 7 C2.32 7 3.64 7 5 7 C5.99 7 6.98 7 8 7 C8.47174055 8.68478769 8.94333422 10.3696167 9.4140625 12.0546875 C9.94378437 13.81336412 10.59065513 15.53570333 11.25 17.25 C11.4975 18.1575 11.745 19.065 12 20 C11.34 20.99 10.68 21.98 10 23 C9.60041513 26.42017557 9.4364652 29.87293041 11 33 C11.495 32.01 11.495 32.01 12 31 C12.66 31 13.32 31 14 31 C14.33 29.68 14.66 28.36 15 27 C17.21854707 31.62197306 18.38281159 34.76824163 18 40 C17.34 40 16.68 40 16 40 C16 41.98 16 43.96 16 46 C16.66 46 17.32 46 18 46 C18.66 47.32 19.32 48.64 20 50 C20.99 49.01 21.98 48.02 23 47 C26.70030952 49.46687301 26.95803768 50.75199978 28 55 C28.51085347 60.61938817 27.42081619 64.05750028 25 69 C24.236875 68.649375 23.47375 68.29875 22.6875 67.9375 C19.95240621 66.67639116 19.95240621 66.67639116 17 68 C16.67 67.67 16.34 67.34 16 67 C13.78144736 66.91216458 11.56011504 66.89305391 9.33984375 66.90234375 C8.67537735 66.9037587 8.01091095 66.90517365 7.3263092 66.90663147 C5.19666101 66.91224482 3.06711661 66.92479946 0.9375 66.9375 C-0.50325369 66.94251329 -1.94400903 66.94707649 -3.38476562 66.95117188 C-6.92321102 66.96221855 -10.46159539 66.97949208 -14 67 C-14 68.32 -14 69.64 -14 71 C-13.34 71 -12.68 71 -12 71 C-12 71.66 -12 72.32 -12 73 C-10.35 73 -8.7 73 -7 73 C-6.505 73.99 -6.505 73.99 -6 75 C-12.89101274 76.98688239 -22.0655028 76.85770784 -29 75 C-30.75390625 73.45703125 -30.75390625 73.45703125 -32 72 C-30.7015201 67.99635363 -29.38854245 66.40477206 -26 64 C-25.67 63.01 -25.34 62.02 -25 61 C-24.34 61 -23.68 61 -23 61 C-22.81824219 60.24074219 -22.63648438 59.48148437 -22.44921875 58.69921875 C-22.19785156 57.70535156 -21.94648438 56.71148437 -21.6875 55.6875 C-21.44386719 54.70136719 -21.20023438 53.71523438 -20.94921875 52.69921875 C-19.97444654 49.92733562 -19.13699322 48.91438976 -17 47 C-15.95377125 45.02379014 -14.94560065 43.0262871 -14 41 C-13.34 41 -12.68 41 -12 41 C-11.83564453 40.12988281 -11.83564453 40.12988281 -11.66796875 39.2421875 C-10.67510253 34.35050514 -9.23956709 30.47913418 -7 26 C-6.2863276 22.26228166 -6.2863276 22.26228166 -6 19 C-5.34 19 -4.68 19 -4 19 C-3.87625 17.783125 -3.7525 16.56625 -3.625 15.3125 C-3.20595091 11.90622955 -2.33469269 9.16989515 -1 6 C-0.62406934 4.0075675 -0.28020455 2.0081326 0 0 Z " fill="#66050D" transform="translate(246,225)"/>
<path d="M0 0 C21.12 0 42.24 0 64 0 C64 7.92 64 15.84 64 24 C42.88 24 21.76 24 0 24 C0 16.08 0 8.16 0 0 Z " fill="#FBA213" transform="translate(133,316)"/>
<path d="M0 0 C20.79 0 41.58 0 63 0 C63 7.92 63 15.84 63 24 C42.21 24 21.42 24 0 24 C0 16.08 0 8.16 0 0 Z " fill="#FAA213" transform="translate(303,316)"/>
<path d="M0 0 C2.80324347 2.80324347 2.98240913 5.99269387 3.75 9.75 C6.72599241 23.19960702 12.16459813 35.27195825 20.70703125 46.1796875 C22 48 22 48 22 50 C15.02985877 51.30690148 8.07118304 51.1469602 1 51.125 C-0.24523437 51.12886719 -1.49046875 51.13273437 -2.7734375 51.13671875 C-8.61314321 51.13049305 -14.25250991 51.07765439 -20 50 C-18.52573252 46.83860288 -16.72828868 43.92833668 -14.87744141 40.97558594 C-7.08189232 28.44256939 -1.63972239 14.75750149 0 0 Z " fill="#FAA213" transform="translate(249,239)"/>
<path d="M0 0 C3.96 0 7.92 0 12 0 C13 1 13 1 13.12025452 3.43605042 C13.1169236 5.05820717 13.1169236 5.05820717 13.11352539 6.71313477 C13.11344986 7.9343251 13.11337433 9.15551544 13.11329651 10.41371155 C13.10818911 11.75627686 13.10297311 13.09884175 13.09765625 14.44140625 C13.09579199 15.80761158 13.09436813 17.17381757 13.09336853 18.5400238 C13.08954394 22.14201695 13.07971417 25.74397 13.06866455 29.34594727 C13.05844916 33.01903745 13.05387064 36.69213409 13.04882812 40.36523438 C13.03809184 47.57684334 13.02049553 54.78841095 13 62 C8.71 62 4.42 62 0 62 C0 41.54 0 21.08 0 0 Z " fill="#45020A" transform="translate(261,317)"/>
<path d="M0 0 C3.96 0 7.92 0 12 0 C13 1 13 1 13.12025452 3.43605042 C13.1169236 5.05820717 13.1169236 5.05820717 13.11352539 6.71313477 C13.11344986 7.9343251 13.11337433 9.15551544 13.11329651 10.41371155 C13.10818911 11.75627686 13.10297311 13.09884175 13.09765625 14.44140625 C13.09579199 15.80761158 13.09436813 17.17381757 13.09336853 18.5400238 C13.08954394 22.14201695 13.07971417 25.74397 13.06866455 29.34594727 C13.05844916 33.01903745 13.05387064 36.69213409 13.04882812 40.36523438 C13.03809184 47.57684334 13.02049553 54.78841095 13 62 C8.71 62 4.42 62 0 62 C0 41.54 0 21.08 0 0 Z " fill="#46010B" transform="translate(244,317)"/>
<path d="M0 0 C3.96 0 7.92 0 12 0 C13 1 13 1 13.12025452 3.43605042 C13.1169236 5.05820717 13.1169236 5.05820717 13.11352539 6.71313477 C13.11344986 7.9343251 13.11337433 9.15551544 13.11329651 10.41371155 C13.10818911 11.75627686 13.10297311 13.09884175 13.09765625 14.44140625 C13.09579199 15.80761158 13.09436813 17.17381757 13.09336853 18.5400238 C13.08954394 22.14201695 13.07971417 25.74397 13.06866455 29.34594727 C13.05844916 33.01903745 13.05387064 36.69213409 13.04882812 40.36523438 C13.03809184 47.57684334 13.02049553 54.78841095 13 62 C8.71 62 4.42 62 0 62 C0 41.54 0 21.08 0 0 Z " fill="#45010B" transform="translate(226,317)"/>
<path d="M0 0 C0.33 0 0.66 0 1 0 C1 6.6 1 13.2 1 20 C20.14 20 39.28 20 59 20 C59 13.4 59 6.8 59 0 C60.65 0 62.3 0 64 0 C64 7.92 64 15.84 64 24 C42.88 24 21.76 24 0 24 C0 16.08 0 8.16 0 0 Z " fill="#CE7F17" transform="translate(133,316)"/>
<path d="M0 0 C0.33 0 0.66 0 1 0 C1 6.93 1 13.86 1 21 C29.215 20.505 29.215 20.505 58 20 C58.33 13.4 58.66 6.8 59 0 C60.32 0 61.64 0 63 0 C63 7.92 63 15.84 63 24 C42.21 24 21.42 24 0 24 C0 16.08 0 8.16 0 0 Z " fill="#D07F19" transform="translate(303,316)"/>
<path d="M0 0 C1.82867363 0.01665459 1.82867363 0.01665459 3.69429016 0.03364563 C4.70444183 0.03255043 4.70444183 0.03255043 5.73500061 0.03143311 C7.95963778 0.03491506 10.18217741 0.07379828 12.40644836 0.11299133 C13.94914608 0.12231746 15.4918586 0.12943452 17.03457642 0.13442993 C21.09396795 0.15351599 25.15246417 0.20262922 29.21150208 0.25794983 C33.35383491 0.3091085 37.49631251 0.33193665 41.63887024 0.35713196 C49.76623412 0.41074766 57.89287048 0.4960784 66.01972961 0.60127258 C66.51472961 1.59127258 66.51472961 1.59127258 67.01972961 2.60127258 C43.91972961 2.60127258 20.81972961 2.60127258 -2.98027039 2.60127258 C-2.83589539 12.64564758 -2.69152039 22.69002258 -2.54277039 33.03877258 C-2.49966736 36.19367249 -2.45656433 39.34857239 -2.41215515 42.59907532 C-2.37400397 45.11934418 -2.33553247 47.63960823 -2.29667664 50.15986633 C-2.28020081 51.45251404 -2.26372498 52.74516174 -2.24674988 54.07698059 C-2.14117907 60.65587548 -1.85108996 67.07787329 -0.98027039 73.60127258 C-1.97027039 73.60127258 -2.96027039 73.60127258 -3.98027039 73.60127258 C-4.89122513 66.19475865 -5.10076321 58.91737034 -5.04277039 51.46064758 C-5.03898376 50.33483276 -5.03519714 49.20901794 -5.03129578 48.04908752 C-5.01917017 44.48310853 -5.0005369 40.91721401 -4.98027039 37.35127258 C-4.95364022 32.63773308 -4.93367837 27.92423409 -4.91777039 23.21064758 C-4.90947205 22.13554932 -4.90117371 21.06045105 -4.8926239 19.95277405 C-4.87116192 14.03535799 -4.87116192 14.03535799 -5.67167664 8.18818665 C-5.98027039 5.60127258 -5.98027039 5.60127258 -4.91671753 2.97506714 C-2.98027039 0.60127258 -2.98027039 0.60127258 0 0 Z " fill="#530610" transform="translate(216.9802703857422,305.3987274169922)"/>
<path d="M0 0 C0.66 0.33 1.32 0.66 2 1 C-1.39030181 10.37227069 -5.40364543 19.18512491 -9.9375 28.0625 C-10.82985352 29.8269043 -10.82985352 29.8269043 -11.74023438 31.62695312 C-12.92110179 33.96158607 -14.1046481 36.29486617 -15.29101562 38.62670898 C-16.92901554 41.85988682 -18.54281972 45.10413814 -20.15234375 48.3515625 C-22.51490138 53.0841331 -24.9989995 57.72168841 -27.625 62.3125 C-27.99367188 62.96283203 -28.36234375 63.61316406 -28.7421875 64.28320312 C-29.82463068 66.19081865 -30.9115372 68.09581394 -32 70 C-32.34756348 70.60900146 -32.69512695 71.21800293 -33.05322266 71.84545898 C-34.03449419 73.56420353 -35.01721355 75.28212124 -36 77 C-36.80824219 78.42119141 -36.80824219 78.42119141 -37.6328125 79.87109375 C-38.12523437 80.71800781 -38.61765625 81.56492187 -39.125 82.4375 C-39.87136719 83.73494141 -39.87136719 83.73494141 -40.6328125 85.05859375 C-41.08398438 85.69925781 -41.53515625 86.33992188 -42 87 C-42.66 87 -43.32 87 -44 87 C-43.45823778 81.94683599 -41.03293239 78.3022644 -38.4375 74.0625 C-37.52800183 72.54595895 -36.61915733 71.02902571 -35.7109375 69.51171875 C-35.02789551 68.37742432 -35.02789551 68.37742432 -34.33105469 67.22021484 C-32.37494596 63.95740252 -30.46019669 60.67204961 -28.5625 57.375 C-27.94503906 56.31023437 -27.32757813 55.24546875 -26.69140625 54.1484375 C-24.90427675 50.82181769 -23.43712615 47.48953566 -22 44 C-21.34 44 -20.68 44 -20 44 C-19.81824219 43.43152344 -19.63648438 42.86304688 -19.44921875 42.27734375 C-17.85915366 37.39298997 -16.09540222 32.68970973 -14 28 C-13.34 28 -12.68 28 -12 28 C-11.57654297 26.69289062 -11.57654297 26.69289062 -11.14453125 25.359375 C-8.15512708 16.58501464 -4.27167146 8.21615105 0 0 Z " fill="#530007" transform="translate(436,206)"/>
<path d="M0 0 C2.80324347 2.80324347 2.98240913 5.99269387 3.75 9.75 C6.72599241 23.19960702 12.16459813 35.27195825 20.70703125 46.1796875 C22 48 22 48 22 50 C15.02985877 51.30690148 8.07118304 51.1469602 1 51.125 C-0.24523437 51.12886719 -1.49046875 51.13273437 -2.7734375 51.13671875 C-8.61314321 51.13049305 -14.25250991 51.07765439 -20 50 C-20 49.34 -20 48.68 -20 48 C-18.53977417 48.00785522 -18.53977417 48.00785522 -17.05004883 48.01586914 C-13.425221 48.03402117 -9.80039717 48.04546923 -6.17553711 48.05493164 C-4.60912398 48.05994856 -3.0427155 48.06676362 -1.47631836 48.07543945 C0.78012239 48.08762094 3.03650102 48.09325481 5.29296875 48.09765625 C5.98899704 48.10281754 6.68502533 48.10797882 7.40214539 48.11329651 C11.06470152 48.11371546 14.43868858 47.87148095 18 47 C17.3503125 46.02417969 16.700625 45.04835938 16.03125 44.04296875 C15.18714146 42.75804797 14.34341106 41.47287871 13.5 40.1875 C12.85611328 39.22360352 12.85611328 39.22360352 12.19921875 38.24023438 C9 33.33984375 9 33.33984375 9 30 C8.34 30 7.68 30 7 30 C5.61305569 26.7003092 4.27180633 23.3837867 2.9375 20.0625 C2.54755859 19.13630859 2.15761719 18.21011719 1.75585938 17.25585938 C-0.75338269 10.92724 -1.31242337 6.6995434 0 0 Z " fill="#CF7619" transform="translate(249,239)"/>
<path d="M0 0 C0.66 0 1.32 0 2 0 C1.32505943 4.1950835 -0.03531076 7.83886174 -1.65234375 11.76171875 C-1.91253799 12.39358597 -2.17273224 13.02545319 -2.44081116 13.6764679 C-2.98912614 15.00440332 -3.5397408 16.33139127 -4.0925293 17.6574707 C-4.93799393 19.68868665 -5.77312406 21.72394158 -6.60742188 23.75976562 C-7.14261389 25.05233826 -7.67840063 26.34466484 -8.21484375 27.63671875 C-8.70073975 28.80936279 -9.18663574 29.98200684 -9.68725586 31.19018555 C-11 34 -11 34 -13 36 C-14.00849549 32.79115073 -14.25168427 31.49138358 -12.6875 28.4375 C-12.130625 27.633125 -11.57375 26.82875 -11 26 C-9.12468577 22.84157603 -8.79602853 20.67148645 -9 17 C-8.34 16.67 -7.68 16.34 -7 16 C-6.53476937 14.10466658 -6.53476937 14.10466658 -6.375 11.9375 C-6.25125 10.638125 -6.1275 9.33875 -6 8 C-7.98 8.33 -9.96 8.66 -12 9 C-12.33 9.99 -12.66 10.98 -13 12 C-15.97 11.505 -15.97 11.505 -19 11 C-17.08221251 9.08221251 -15.73757771 8.25781895 -13.33984375 7.08984375 C-12.62892578 6.73986328 -11.91800781 6.38988281 -11.18554688 6.02929688 C-10.07276367 5.48885742 -10.07276367 5.48885742 -8.9375 4.9375 C-4.15297632 2.91005491 -4.15297632 2.91005491 0 0 Z " fill="#570E17" transform="translate(498,179)"/>
<path d="M0 0 C3.32360034 0.92816264 4.69164774 1.47710635 6.4765625 4.50390625 C6.85554688 5.51324219 7.23453125 6.52257812 7.625 7.5625 C8.03878906 8.63886719 8.45257813 9.71523438 8.87890625 10.82421875 C9.82213612 13.49615562 10.71091441 16.17294193 11.5625 18.875 C12.79334151 22.74137219 14.67665341 25.66018928 17 29 C18.58416149 32.24508851 19.85798085 35.57394256 21 39 C21.66 39 22.32 39 23 39 C23 39.99 23 40.98 23 42 C21.20263672 41.85107422 21.20263672 41.85107422 19 41 C17.35595703 38.58251953 17.35595703 38.58251953 15.7578125 35.3828125 C15.16613281 34.2175 14.57445312 33.0521875 13.96484375 31.8515625 C13.35105433 30.60962602 12.73777543 29.3674371 12.125 28.125 C11.52084081 26.92121686 10.91538413 25.71808399 10.30859375 24.515625 C9.11561887 22.15037761 7.92836331 19.78223617 6.74707031 17.41113281 C4.6215474 13.26107607 2.32495629 9.22297605 -0.03564453 5.20263672 C-1 3 -1 3 0 0 Z " fill="#50181E" transform="translate(31,247)"/>
<path d="M0 0 C0.33 0 0.66 0 1 0 C0.91559366 8.14526483 0.82070942 16.29031161 0.71247292 24.43529129 C0.66254216 28.21740302 0.61621197 31.99948726 0.578125 35.78173828 C0.54123129 39.43231047 0.4948605 43.08265085 0.44193649 46.7330246 C0.4234142 48.12522055 0.40829822 49.51746615 0.39665604 50.90973663 C0.37975732 52.86082207 0.34958829 54.81177887 0.31884766 56.76269531 C0.30552399 57.8730011 0.29220032 58.98330688 0.2784729 60.1272583 C0.00618611 62.93618375 -0.54642264 64.61190569 -2 67 C-1.34 67 -0.68 67 0 67 C0 67.66 0 68.32 0 69 C-0.99 69 -1.98 69 -3 69 C-3.69501219 66.83773987 -4.11247725 65.43112862 -3.53146362 63.2040863 C-2.89394457 60.56016684 -2.90250945 58.20467167 -2.93408203 55.48461914 C-2.94871994 53.82753685 -2.94871994 53.82753685 -2.96365356 52.13697815 C-2.97822601 50.94837692 -2.99279846 49.7597757 -3.0078125 48.53515625 C-3.02532732 46.01888423 -3.04223574 43.50260793 -3.05859375 40.98632812 C-3.08957883 37.01851614 -3.12513502 33.05091703 -3.17138672 29.08325195 C-3.21369124 25.25469281 -3.23715652 21.42638511 -3.2578125 17.59765625 C-3.28574387 15.81779076 -3.28574387 15.81779076 -3.3142395 14.00196838 C-3.31769379 12.8940947 -3.32114807 11.78622101 -3.32470703 10.64477539 C-3.33438507 9.67310928 -3.34406311 8.70144318 -3.35403442 7.70033264 C-2.93522558 4.50594495 -1.86715854 2.59963078 0 0 Z " fill="#530610" transform="translate(287,310)"/>
<path d="M0 0 C2 2 2 2 2 5 C2.66 5.33 3.32 5.66 4 6 C1.69 9.3 -0.62 12.6 -3 16 C10.86 16 24.72 16 39 16 C38.34 14.35 37.68 12.7 37 11 C38.32 11.66 39.64 12.32 41 13 C40.125 18.75 40.125 18.75 39 21 C38.236875 20.649375 37.47375 20.29875 36.6875 19.9375 C33.95240621 18.67639116 33.95240621 18.67639116 31 20 C30.67 19.67 30.34 19.34 30 19 C27.55169574 18.91156207 25.13179401 18.88471248 22.68359375 18.90234375 C21.95253922 18.9037587 21.22148468 18.90517365 20.46827698 18.90663147 C18.12464368 18.91224592 15.78110461 18.92480078 13.4375 18.9375 C11.85221492 18.94251314 10.26692834 18.94707637 8.68164062 18.95117188 C4.7877239 18.96222003 0.89387795 18.97949428 -3 19 C-4.0546875 17.19140625 -4.0546875 17.19140625 -5 15 C-4.125 11.9375 -4.125 11.9375 -3 9 C-3 8.01 -3 7.02 -3 6 C-2.04788888 3.97676387 -1.05226728 1.97300116 0 0 Z " fill="#6C0905" transform="translate(232,273)"/>
<path d="M0 0 C0.99 0.33 1.98 0.66 3 1 C-2.62106372 13.46553542 -8.9552621 25.44179246 -15.57226562 37.40429688 C-17.66547687 41.20987519 -19.71275068 45.03924151 -21.75 48.875 C-22.08515625 49.5055127 -22.4203125 50.13602539 -22.765625 50.78564453 C-23.51136188 52.18992815 -24.25585212 53.59487371 -25 55 C-26 52 -26 52 -24.3125 48.4375 C-23.93738281 47.73753906 -23.56226563 47.03757812 -23.17578125 46.31640625 C-21.94028658 43.88235861 -20.96614348 41.4270045 -20 38.875 C-18.40709735 34.81121687 -16.70801787 31.43015597 -14 28 C-13.34 28 -12.68 28 -12 28 C-11.9175 27.175 -11.835 26.35 -11.75 25.5 C-10.83552731 21.23246079 -9.07776822 17.80763106 -7 14 C-6.34 14 -5.68 14 -5 14 C-5 13.01 -5 12.02 -5 11 C-4.34 11 -3.68 11 -3 11 C-3.33 10.01 -3.66 9.02 -4 8 C-3.34 7.34 -2.68 6.68 -2 6 C-1.28591666 4.01643517 -0.61382258 2.01684563 0 0 Z " fill="#4F1019" transform="translate(469,244)"/>
<path d="M0 0 C-2.19851951 8.36980236 -5.49070196 16.11827559 -9 24 C-10.45606519 19.47907032 -9.27032841 16.48351204 -8 12 C-10.97 11.01 -13.94 10.02 -17 9 C-13.94746898 6.59124922 -10.78648153 4.67456202 -7.375 2.8125 C-6.41335938 2.28269531 -5.45171875 1.75289062 -4.4609375 1.20703125 C-2 0 -2 0 0 0 Z " fill="#620610" transform="translate(449,180)"/>
<path d="M0 0 C0.33 0 0.66 0 1 0 C1 7.92 1 15.84 1 24 C21.79 24 42.58 24 64 24 C64 24.33 64 24.66 64 25 C42.55 25.33 21.1 25.66 -1 26 C-1 2 -1 2 0 0 Z " fill="#4C1503" transform="translate(302,316)"/>
<path d="M0 0 C0.66 0 1.32 0 2 0 C2.31638428 0.58265625 2.63276855 1.1653125 2.95874023 1.765625 C6.62704672 8.51706048 10.30829316 15.26133193 14 22 C14.4630957 22.8461084 14.92619141 23.6922168 15.40332031 24.56396484 C16.61697442 26.77523713 17.83805248 28.98219047 19.0625 31.1875 C19.59798462 32.16493164 19.59798462 32.16493164 20.14428711 33.16210938 C21.83589277 36.19000627 23.53499136 38.58179533 26 41 C25.6875 43.1875 25.6875 43.1875 25 45 C22.48232428 43.74116214 22.11786456 42.66011888 20.8125 40.1875 C18.2086305 35.35063855 15.445589 30.62184386 12.6484375 25.89453125 C8 17.73222749 8 17.73222749 8 15 C7.34 15 6.68 15 6 15 C4.99539469 12.87717331 3.99644398 10.75166979 3 8.625 C2.443125 7.44164062 1.88625 6.25828125 1.3125 5.0390625 C0 2 0 2 0 0 Z " fill="#510106" transform="translate(80,244)"/>
<path d="M0 0 C1.35814777 4.0744433 -0.05254238 6.81468116 -1.4375 10.6875 C-1.68048828 11.38939453 -1.92347656 12.09128906 -2.17382812 12.81445312 C-2.7744944 14.54578532 -3.38619719 16.27328137 -4 18 C-4.66 17.67 -5.32 17.34 -6 17 C-6.40729228 14.67843403 -6.74438677 12.3431213 -7 10 C-7.55429687 10.16757813 -8.10859375 10.33515625 -8.6796875 10.5078125 C-9.40414063 10.71148437 -10.12859375 10.91515625 -10.875 11.125 C-11.95394531 11.43824219 -11.95394531 11.43824219 -13.0546875 11.7578125 C-13.69664062 11.83773437 -14.33859375 11.91765625 -15 12 C-15.66 11.34 -16.32 10.68 -17 10 C-8.585 5.05 -8.585 5.05 0 0 Z " fill="#640C16" transform="translate(403,161)"/>
<path d="M0 0 C3.89608498 1.48904175 7.59097018 3.24378713 11.3125 5.125 C12.38113281 5.66382813 13.44976562 6.20265625 14.55078125 6.7578125 C15.76314453 7.37269531 15.76314453 7.37269531 17 8 C14.4345406 10.5654594 12.52313332 10.54046087 9 11 C8.67 13.97 8.34 16.94 8 20 C5.76206424 16.64309635 4.34949662 13.1660716 2.875 9.4375 C2.59785156 8.75236328 2.32070313 8.06722656 2.03515625 7.36132812 C-0 2.2533867 -0 2.2533867 0 0 Z " fill="#5E0F19" transform="translate(0,179)"/>
<path d="M0 0 C0 0.66 0 1.32 0 2 C-5.28 3.32 -10.56 4.64 -16 6 C-15.67 7.65 -15.34 9.3 -15 11 C-15.66 11 -16.32 11 -17 11 C-18.35439668 8.29120665 -18.06501451 5.99066732 -18 3 C-18.99 3 -19.98 3 -21 3 C-21 2.01 -21 1.02 -21 0 C-20.35933594 0.01160156 -19.71867187 0.02320313 -19.05859375 0.03515625 C-14.9877307 0.07762427 -11.16437287 0.02386058 -7.125 -0.5625 C-4.27709831 -0.96120624 -2.66408926 -0.95907213 0 0 Z " fill="#56020B" transform="translate(306,281)"/>
<path d="M0 0 C3.43821167 2.29214111 3.91072244 3.99797714 5.22753906 7.79345703 C6.43731939 11.24920754 7.90869964 14.58431982 9.375 17.9375 C9.67664063 18.63262695 9.97828125 19.32775391 10.2890625 20.04394531 C12.310076 24.63190286 14.54298111 28.97340798 17.25 33.203125 C18.20814391 35.49867812 17.81441118 36.69928842 17 39 C15.9923048 37.2335343 14.99408286 35.46166177 14 33.6875 C13.443125 32.70136719 12.88625 31.71523437 12.3125 30.69921875 C11 28 11 28 11 25 C10.34 25 9.68 25 9 25 C7.6803392 21.77371408 6.37055472 18.54350696 5.0625 15.3125 C4.68931641 14.40048828 4.31613281 13.48847656 3.93164062 12.54882812 C3.57392578 11.66259766 3.21621094 10.77636719 2.84765625 9.86328125 C2.51773682 9.05157471 2.18781738 8.23986816 1.84790039 7.40356445 C0.98227756 4.94976176 0.44826579 2.56009574 0 0 Z " fill="#530209" transform="translate(61,202)"/>
<path d="M0 0 C3.96 0 7.92 0 12 0 C12 0.33 12 0.66 12 1 C11.04287109 1.09087891 11.04287109 1.09087891 10.06640625 1.18359375 C9.24011719 1.26738281 8.41382813 1.35117187 7.5625 1.4375 C6.32693359 1.55931641 6.32693359 1.55931641 5.06640625 1.68359375 C3.01337975 1.78930815 3.01337975 1.78930815 2 3 C1.87662826 4.84031989 1.82208692 6.68529411 1.79467773 8.52954102 C1.77473251 9.71068985 1.75478729 10.89183868 1.73423767 12.10877991 C1.70916893 14.03686745 1.70916893 14.03686745 1.68359375 16.00390625 C1.66281265 17.31205795 1.64203156 18.62020966 1.62062073 19.96800232 C1.565337 23.45155447 1.51595569 26.9351666 1.46777344 30.41882324 C1.41760426 33.9713273 1.36189433 37.5237439 1.30664062 41.07617188 C1.19898209 48.05070546 1.09755433 55.02531798 1 62 C0.67 62 0.34 62 0 62 C0 41.54 0 21.08 0 0 Z " fill="#53020D" transform="translate(226,317)"/>
<path d="M0 0 C0.99 0 1.98 0 3 0 C3.47174055 1.68478769 3.94333422 3.3696167 4.4140625 5.0546875 C4.94378437 6.81336412 5.59065513 8.53570333 6.25 10.25 C6.4975 11.1575 6.745 12.065 7 13 C6.01 14.485 6.01 14.485 5 16 C4.34 16 3.68 16 3 16 C2.73445312 15.32453125 2.46890625 14.6490625 2.1953125 13.953125 C1.84210938 13.06109375 1.48890625 12.1690625 1.125 11.25 C0.77695313 10.36828125 0.42890625 9.4865625 0.0703125 8.578125 C-0.8646709 6.3259752 -1.87780794 4.16350541 -3 2 C-2.34 2 -1.68 2 -1 2 C-0.67 1.34 -0.34 0.68 0 0 Z " fill="#5C030C" transform="translate(251,232)"/>
<path d="M0 0 C2.19164944 3.28747416 2.28679386 4.48494825 2.4140625 8.32421875 C2.45273438 9.35224609 2.49140625 10.38027344 2.53125 11.43945312 C2.5621875 12.51130859 2.593125 13.58316406 2.625 14.6875 C2.66367188 15.77095703 2.70234375 16.85441406 2.7421875 17.97070312 C2.83650509 20.64696467 2.92210005 23.32321843 3 26 C1.05053711 25.19165039 1.05053711 25.19165039 -1 24 C-2.43289922 18.5660585 -1.81755168 13.53545226 -1.0625 8.0625 C-0.96259766 7.28326172 -0.86269531 6.50402344 -0.75976562 5.70117188 C-0.51479023 3.79969619 -0.25856108 1.899676 0 0 Z " fill="#714F55" transform="translate(249,142)"/>
<path d="M0 0 C0.78375 0.04125 1.5675 0.0825 2.375 0.125 C2.375 0.785 2.375 1.445 2.375 2.125 C4.025 2.125 5.675 2.125 7.375 2.125 C7.375 2.455 7.375 2.785 7.375 3.125 C6.41787109 3.21587891 6.41787109 3.21587891 5.44140625 3.30859375 C4.61511719 3.39238281 3.78882813 3.47617187 2.9375 3.5625 C2.11378906 3.64371094 1.29007812 3.72492188 0.44140625 3.80859375 C-1.61162025 3.91430815 -1.61162025 3.91430815 -2.625 5.125 C-5.07560745 5.14194275 -7.49420983 5.09622182 -9.94140625 5.00390625 C-11.03798805 4.96848976 -11.03798805 4.96848976 -12.15672302 4.93235779 C-14.50050456 4.85554916 -16.84396982 4.77159969 -19.1875 4.6875 C-20.77277078 4.63429648 -22.35805718 4.58155598 -23.94335938 4.52929688 C-27.83744132 4.39991096 -31.7312541 4.26411869 -35.625 4.125 C-35.625 3.795 -35.625 3.465 -35.625 3.125 C-34.6963916 3.10518066 -33.7677832 3.08536133 -32.81103516 3.06494141 C-29.3704948 2.98691387 -25.93040109 2.90022538 -22.49023438 2.80761719 C-21.00041111 2.76930002 -19.51049446 2.73445192 -18.02050781 2.703125 C-15.88051952 2.65753271 -13.74117564 2.59953126 -11.6015625 2.5390625 C-10.31330566 2.5076416 -9.02504883 2.4762207 -7.69775391 2.44384766 C-4.02958073 2.06321567 -3.55912493 0.16948214 0 0 Z " fill="#52020B" transform="translate(275.625,296.875)"/>
<path d="M0 0 C1.32 0 2.64 0 4 0 C4 7.59 4 15.18 4 23 C2 22 2 22 1 19 C0.85426942 17.52034074 0.75336732 16.03596157 0.68359375 14.55078125 C0.64169922 13.70322266 0.59980469 12.85566406 0.55664062 11.98242188 C0.51732422 11.10134766 0.47800781 10.22027344 0.4375 9.3125 C0.39431641 8.41982422 0.35113281 7.52714844 0.30664062 6.60742188 C0.20064647 4.40509892 0.09857949 2.20266527 0 0 Z " fill="#D27F1A" transform="translate(192,316)"/>
<path d="M0 0 C2.16874252 0.50603992 3.99967627 0.99983813 6 2 C6 3.65 6 5.3 6 7 C6.99 7 7.98 7 9 7 C10.29243536 11.1196377 11.26252625 14.66831683 11 19 C8.35446906 15.61171748 6.06760348 12.02883856 3.8125 8.375 C3.44447266 7.78976562 3.07644531 7.20453125 2.69726562 6.6015625 C0 2.23789715 0 2.23789715 0 0 Z " fill="#53171F" transform="translate(62,307)"/>
<path d="M0 0 C3.48411631 0.94434802 4.73614393 1.55705321 6.6171875 4.71484375 C7.03226563 5.77832031 7.44734375 6.84179688 7.875 7.9375 C8.30554687 8.99839844 8.73609375 10.05929687 9.1796875 11.15234375 C10 14 10 14 9 17 C8.01 15.02 7.02 13.04 6 11 C5.34 11.66 4.68 12.32 4 13 C3.13372601 11.40233897 2.28233535 9.79660056 1.4375 8.1875 C0.96183594 7.29417969 0.48617188 6.40085938 -0.00390625 5.48046875 C-1 3 -1 3 0 0 Z " fill="#5E1820" transform="translate(31,247)"/>
<path d="M0 0 C4.46373661 2.03576272 6.53200888 4.90286983 9.3125 8.875 C10.34362029 12.06209907 9.6221064 14.76504671 9 18 C6.13301241 14.59060935 4.4916571 10.82972984 2.8125 6.75 C2.53986328 6.1003125 2.26722656 5.450625 1.98632812 4.78125 C1.31923158 3.18958104 0.65892555 1.59506897 0 0 Z " fill="#581821" transform="translate(21,230)"/>
<path d="M0 0 C1.10546875 1.47265625 1.10546875 1.47265625 2 4 C1.57321961 6.92359085 1.04361488 9.59319595 0.3125 12.4375 C0.13783203 13.18837891 -0.03683594 13.93925781 -0.21679688 14.71289062 C-1.24963798 18.92199576 -2.42559126 22.43270635 -5 26 C-5.33 26 -5.66 26 -6 26 C-6 23.69 -6 21.38 -6 19 C-5.34 19 -4.68 19 -4 19 C-3.87625 17.783125 -3.7525 16.56625 -3.625 15.3125 C-3.20595091 11.90622955 -2.33469269 9.16989515 -1 6 C-0.62406934 4.0075675 -0.28020455 2.0081326 0 0 Z " fill="#55020E" transform="translate(246,225)"/>
<path d="M0 0 C-0.99 3.3 -1.98 6.6 -3 10 C-3.66 8.68 -4.32 7.36 -5 6 C-5.721875 6.28875 -6.44375 6.5775 -7.1875 6.875 C-11.09375 8.4375 -11.09375 8.4375 -15 10 C-15.66 9.34 -16.32 8.68 -17 8 C-14.54429825 6.66161267 -12.08570084 5.32913768 -9.625 4 C-8.92632812 3.6184375 -8.22765625 3.236875 -7.5078125 2.84375 C-2.2265625 0 -2.2265625 0 0 0 Z " fill="#662E37" transform="translate(449,180)"/>
<path d="M0 0 C0.99 0 1.98 0 3 0 C6.44978893 4.03328438 8.60240043 8.91781973 10 14 C9.34 14.66 8.68 15.32 8 16 C6.66141476 13.71125827 5.32898986 11.41930344 4 9.125 C3.6184375 8.47402344 3.236875 7.82304687 2.84375 7.15234375 C0 2.2265625 0 2.2265625 0 0 Z " fill="#4E131A" transform="translate(53,291)"/>
<path d="M0 0 C3.3 0.99 6.6 1.98 10 3 C9 5 9 5 6.25 6.125 C3.29813104 6.91973395 1.02780163 7.17810598 -2 7 C-1.34 4.69 -0.68 2.38 0 0 Z " fill="#6F141E" transform="translate(91,199)"/>
<path d="M0 0 C-0.4520471 2.44105433 -1.07035042 4.11511886 -2.375 6.25 C-4.4233949 9.71651445 -5.65023194 13.2077945 -7 17 C-7.33 17 -7.66 17 -8 17 C-8.24741553 12.9588796 -8.15033437 9.90145145 -6.4375 6.25 C-4.59950927 3.07988959 -4.59950927 3.07988959 -6 0 C-3 -1 -3 -1 0 0 Z " fill="#4F030C" transform="translate(240,212)"/>
<path d="M0 0 C2.52259061 1.97420135 2.9929808 2.96745642 3.6875 6.1875 C3.790625 7.115625 3.89375 8.04375 4 9 C1.36 9 -1.28 9 -4 9 C-4 5.00095031 -2.27413033 3.19799578 0 0 Z " fill="#F69F14" transform="translate(235,279)"/>
<path d="M0 0 C3.3 0.33 6.6 0.66 10 1 C8.515 2.485 8.515 2.485 7 4 C7 4.66 7 5.32 7 6 C5.948125 5.7525 5.948125 5.7525 4.875 5.5 C1.86111806 4.97584662 -0.94713625 4.92900317 -4 5 C-3.67 4.01 -3.34 3.02 -3 2 C-2.01 2 -1.02 2 0 2 C0 1.34 0 0.68 0 0 Z " fill="#731622" transform="translate(219,209)"/>
<path d="M0 0 C0.33 0.66 0.66 1.32 1 2 C-2.08433792 2.9016858 -4.85341821 3.13468049 -8.0625 3.125 C-9.34833984 3.12886719 -9.34833984 3.12886719 -10.66015625 3.1328125 C-13 3 -13 3 -16 2 C-16 1.34 -16 0.68 -16 0 C-14.88625 0.020625 -13.7725 0.04125 -12.625 0.0625 C-0.71428571 -0.14285714 -0.71428571 -0.14285714 0 0 Z " fill="#56020C" transform="translate(239,298)"/>
<path d="M0 0 C0.99 0.33 1.98 0.66 3 1 C0.36 6.61 -2.28 12.22 -5 18 C-5.66 16.68 -6.32 15.36 -7 14 C-6.34 14 -5.68 14 -5 14 C-5 13.01 -5 12.02 -5 11 C-4.34 11 -3.68 11 -3 11 C-3.33 10.01 -3.66 9.02 -4 8 C-3.34 7.34 -2.68 6.68 -2 6 C-1.28591666 4.01643517 -0.61382258 2.01684563 0 0 Z " fill="#59252A" transform="translate(469,244)"/>
<path d="M0 0 C3.45925163 1.2491742 6.14693203 2.67527795 9 5 C8.01 5.66 7.02 6.32 6 7 C5.74969023 9.58380177 5.74969023 9.58380177 6 12 C5.34 12 4.68 12 4 12 C3.3291288 10.3767313 2.66342971 8.75132422 2 7.125 C1.62875 6.22007812 1.2575 5.31515625 0.875 4.3828125 C0 2 0 2 0 0 Z " fill="#54151D" transform="translate(0,179)"/>
<path d="M0 0 C0.66 0 1.32 0 2 0 C0.06375702 6.20477864 -2.25609141 12.10825719 -5 18 C-6.140625 16.3125 -6.140625 16.3125 -7 14 C-6.171875 11.5625 -6.171875 11.5625 -4.75 9 C-4.29109375 8.154375 -3.8321875 7.30875 -3.359375 6.4375 C-2.91078125 5.633125 -2.4621875 4.82875 -2 4 C-1.32615534 2.67027988 -0.65673526 1.33825298 0 0 Z " fill="#541C23" transform="translate(491,197)"/>
<path d="M0 0 C1.15957207 3.47871621 0.77456651 4.34219645 -0.4375 7.6875 C-0.72496094 8.49574219 -1.01242187 9.30398437 -1.30859375 10.13671875 C-1.53675781 10.75160156 -1.76492188 11.36648437 -2 12 C-4 9 -4 9 -4 6 C-5.32 5.67 -6.64 5.34 -8 5 C-4.04 2.525 -4.04 2.525 0 0 Z " fill="#6A2731" transform="translate(403,161)"/>
<path d="M0 0 C0.33 0.99 0.66 1.98 1 3 C-2.08809695 4.76462683 -3.23312136 5 -7 5 C-7.33 5.99 -7.66 6.98 -8 8 C-10.97 7.505 -10.97 7.505 -14 7 C-11.79459886 4.79459886 -9.78605258 3.7599273 -7 2.375 C-6.113125 1.92898437 -5.22625 1.48296875 -4.3125 1.0234375 C-2 0 -2 0 0 0 Z " fill="#742432" transform="translate(493,183)"/>
<path d="M0 0 C3.3 1.65 6.6 3.3 10 5 C9.67 6.32 9.34 7.64 9 9 C8.01 9 7.02 9 6 9 C4.95107762 7.36368108 3.95093297 5.69514137 3 4 C2.34 3.67 1.68 3.34 1 3 C0.67 3.66 0.34 4.32 0 5 C-0.33 4.01 -0.66 3.02 -1 2 C-0.67 1.34 -0.34 0.68 0 0 Z " fill="#6D1821" transform="translate(104,166)"/>
<path d="M0 0 C4.50802601 1.25805377 7.4912812 2.90407165 11 6 C9.68 6.33 8.36 6.66 7 7 C7 6.34 7 5.68 7 5 C6.01 5 5.02 5 4 5 C3.67 6.32 3.34 7.64 3 9 C2.01 6.03 1.02 3.06 0 0 Z " fill="#6C3038" transform="translate(51,180)"/>
<path d="M0 0 C0.66 0.99 1.32 1.98 2 3 C0.98877577 5.70546835 -0.07482145 8.12777348 -1.375 10.6875 C-1.88933594 11.7403418 -1.88933594 11.7403418 -2.4140625 12.81445312 C-3.26367583 14.54908033 -4.13026287 16.27537492 -5 18 C-5.8711597 15.55298453 -6.10445676 14.32260403 -5.29296875 11.81640625 C-4.74576172 10.70072266 -4.74576172 10.70072266 -4.1875 9.5625 C-3.81496094 8.78132812 -3.44242187 8.00015625 -3.05859375 7.1953125 C-2.53458984 6.10863281 -2.53458984 6.10863281 -2 5 C-1.32165413 3.33805262 -0.64800425 1.67401097 0 0 Z " fill="#501C22" transform="translate(480,221)"/>
<path d="M0 0 C2 2 2 2 2.265625 3.875 C2.26046875 4.57625 2.2553125 5.2775 2.25 6 C2.25515625 6.70125 2.2603125 7.4025 2.265625 8.125 C2 10 2 10 0 12 C-0.99 8.37 -1.98 4.74 -3 1 C-2.01 0.67 -1.02 0.34 0 0 Z " fill="#6B1B26" transform="translate(102,170)"/>
<path d="M0 0 C0.66 0 1.32 0 2 0 C1.39644592 3.85025879 0.23227397 6.86101159 -1.5625 10.3125 C-2.01753906 11.19550781 -2.47257812 12.07851563 -2.94140625 12.98828125 C-3.29074219 13.65214844 -3.64007813 14.31601562 -4 15 C-4.99 14.67 -5.98 14.34 -7 14 C-6.67 13.34 -6.34 12.68 -6 12 C-5.34 12 -4.68 12 -4 12 C-3.896875 11.13375 -3.79375 10.2675 -3.6875 9.375 C-2.96601586 5.83316877 -1.72876739 3.15687958 0 0 Z " fill="#460D14" transform="translate(461,260)"/>
<path d="M0 0 C0.20625 0.61875 0.4125 1.2375 0.625 1.875 C2.54775888 4.84653645 4.66594527 5.13024659 8 6 C6.35 7.65 4.7 9.3 3 11 C2.30034557 9.73581754 1.61565237 8.46334598 0.9375 7.1875 C0.55464844 6.47980469 0.17179687 5.77210938 -0.22265625 5.04296875 C-1 3 -1 3 0 0 Z " fill="#5E141C" transform="translate(56,189)"/>
<path d="M0 0 C0.99 0.33 1.98 0.66 3 1 C3 1.66 3 2.32 3 3 C3.66 3 4.32 3 5 3 C6.33333333 6.33333333 7.66666667 9.66666667 9 13 C8.01 13.495 8.01 13.495 7 14 C5.82807953 12.04480616 4.6626071 10.0857461 3.5 8.125 C2.8503125 7.03445313 2.200625 5.94390625 1.53125 4.8203125 C0 2 0 2 0 0 Z " fill="#731006" transform="translate(259,268)"/>
<path d="M0 0 C0.33 0 0.66 0 1 0 C0.67 2.31 0.34 4.62 0 7 C-1.32 7.33 -2.64 7.66 -4 8 C-4.99 11.465 -4.99 11.465 -6 15 C-7 13 -7 13 -6.546875 11.08984375 C-6.28390625 10.37957031 -6.0209375 9.66929687 -5.75 8.9375 C-5.49734375 8.22464844 -5.2446875 7.51179687 -4.984375 6.77734375 C-4 5 -4 5 -1 4 C-0.26676204 1.98491642 -0.26676204 1.98491642 0 0 Z " fill="#51050E" transform="translate(473,236)"/>
<path d="M0 0 C2.5654594 2.5654594 2.54046087 4.47686668 3 8 C2.01 8 1.02 8 0 8 C-0.66 9.32 -1.32 10.64 -2 12 C-3.15957207 8.52128379 -2.77456651 7.65780355 -1.5625 4.3125 C-1.13130859 3.10013672 -1.13130859 3.10013672 -0.69140625 1.86328125 C-0.46324219 1.24839844 -0.23507813 0.63351563 0 0 Z " fill="#EF9422" transform="translate(248,248)"/>
<path d="M0 0 C2.35716404 2.15454249 3.78966144 4.19719874 5.1875 7.0625 C5.53167969 7.75472656 5.87585937 8.44695312 6.23046875 9.16015625 C7 11 7 11 7 13 C4 12 4 12 2.83203125 10.29296875 C2.49558594 9.59816406 2.15914062 8.90335937 1.8125 8.1875 C1.46832031 7.50042969 1.12414063 6.81335938 0.76953125 6.10546875 C0 4 0 4 0 0 Z " fill="#460B13" transform="translate(36,257)"/>
<path d="M0 0 C1.88153009 2.82229513 3.00034705 5.27890171 4.1875 8.4375 C4.55230469 9.38496094 4.91710937 10.33242188 5.29296875 11.30859375 C6.01860758 14.07083217 5.97849698 15.36366738 5 18 C4.15875684 15.75267898 3.32685168 13.50261215 2.5 11.25 C2.26152344 10.61578125 2.02304688 9.9815625 1.77734375 9.328125 C0.55198242 5.96713393 0 3.63128413 0 0 Z " fill="#731103" transform="translate(252,247)"/>
<path d="M0 0 C0.66 0 1.32 0 2 0 C1.43628586 3.26954202 0.50037734 4.82575883 -2 7 C-1.01 7 -0.02 7 1 7 C1 7.99 1 8.98 1 10 C-0.32 9.67 -1.64 9.34 -3 9 C-3.75 7.3125 -3.75 7.3125 -4 5 C-2.1875 2.25 -2.1875 2.25 0 0 Z " fill="#56040F" transform="translate(218,290)"/>
<path d="M0 0 C1.32 0 2.64 0 4 0 C2.45730076 4.72065967 0.92205381 9.41664092 -1 14 C-2.36732013 10.30823564 -1.46632841 8.5364391 0 5 C0.16798262 2.29113059 0.16798262 2.29113059 0 0 Z " fill="#5E232B" transform="translate(441,190)"/>
<path d="M0 0 C2.36503817 2.36503817 2.54921059 3.64036042 3.1875 6.875 C3.36667969 7.73867187 3.54585937 8.60234375 3.73046875 9.4921875 C3.9991907 11.99246997 3.7769577 13.63055452 3 16 C2.67 13.69 2.34 11.38 2 9 C1.01 9 0.02 9 -1 9 C-0.67 6.03 -0.34 3.06 0 0 Z " fill="#C46729" transform="translate(249,239)"/>
<path d="M0 0 C3.96 1.98 3.96 1.98 8 4 C8 4.33 8 4.66 8 5 C6.35 5 4.7 5 3 5 C2.67 6.32 2.34 7.64 2 9 C1.34 6.03 0.68 3.06 0 0 Z " fill="#784144" transform="translate(96,161)"/>
<path d="M0 0 C0.66 0.33 1.32 0.66 2 1 C0.35 4.63 -1.3 8.26 -3 12 C-3.66 11.34 -4.32 10.68 -5 10 C-4.01 7.36 -3.02 4.72 -2 2 C-1.34 2 -0.68 2 0 2 C0 1.34 0 0.68 0 0 Z " fill="#781402" transform="translate(242,262)"/>
<path d="M0 0 C0.66 1.32 1.32 2.64 2 4 C-0.31 4.66 -2.62 5.32 -5 6 C-5.66 5.34 -6.32 4.68 -7 4 C-4.69 2.68 -2.38 1.36 0 0 Z " fill="#75202C" transform="translate(393,167)"/>
<path d="M0 0 C0.66 0 1.32 0 2 0 C2.66 1.65 3.32 3.3 4 5 C4.66 5 5.32 5 6 5 C6 5.99 6 6.98 6 8 C4.125 7.75 4.125 7.75 2 7 C0.27898465 4.41847698 0 3.15081975 0 0 Z " fill="#4B0E16" transform="translate(48,281)"/>
<path d="M0 0 C0.87840996 3.09720845 0.99435406 4.90645403 0 8 C-0.66 8 -1.32 8 -2 8 C-2.66 9.65 -3.32 11.3 -4 13 C-4.33 12.34 -4.66 11.68 -5 11 C-4.00390625 8.3984375 -4.00390625 8.3984375 -2.5625 5.375 C-2.08941406 4.37210937 -1.61632812 3.36921875 -1.12890625 2.3359375 C-0.75636719 1.56507813 -0.38382813 0.79421875 0 0 Z " fill="#F29827" transform="translate(244,261)"/>
<path d="M0 0 C0.28875 0.598125 0.5775 1.19625 0.875 1.8125 C2.04742026 4.19327792 2.04742026 4.19327792 4 7 C4.125 10.1875 4.125 10.1875 4 13 C3.34 13 2.68 13 2 13 C2 11.02 2 9.04 2 7 C1.34 7 0.68 7 0 7 C0 4.69 0 2.38 0 0 Z " fill="#570310" transform="translate(260,252)"/>
<path d="M0 0 C-0.60990891 3.55780196 -1.5783681 6.6828589 -3 10 C-4 7 -4 7 -3 4 C-4.32 3.67 -5.64 3.34 -7 3 C-2.25 0 -2.25 0 0 0 Z " fill="#6B3C43" transform="translate(500,179)"/>
<path d="M0 0 C1.32 0.66 2.64 1.32 4 2 C-0.75 6 -0.75 6 -3 6 C-3 4.68 -3 3.36 -3 2 C-2.01 1.34 -1.02 0.68 0 0 Z " fill="#59010A" transform="translate(337,269)"/>
<path d="M0 0 C3.63 0.33 7.26 0.66 11 1 C10.34 2.65 9.68 4.3 9 6 C8.01 5.67 7.02 5.34 6 5 C6 4.01 6 3.02 6 2 C3.03 1.505 3.03 1.505 0 1 C0 0.67 0 0.34 0 0 Z " fill="#751D27" transform="translate(264,211)"/>
<path d="M0 0 C2.9719385 1.12451727 5.33440687 2.22293791 8 4 C2.25 6 2.25 6 0 6 C0 4.02 0 2.04 0 0 Z " fill="#77232D" transform="translate(9,184)"/>
<path d="M0 0 C0 0.99 0 1.98 0 3 C-3.96 4.98 -3.96 4.98 -8 7 C-8.66 6.34 -9.32 5.68 -10 5 C-6.7 3.35 -3.4 1.7 0 0 Z " fill="#73222E" transform="translate(442,183)"/>
<path d="M0 0 C3 1 3 1 3.94921875 2.84765625 C4.19285156 3.57855469 4.43648437 4.30945313 4.6875 5.0625 C4.93886719 5.79597656 5.19023437 6.52945313 5.44921875 7.28515625 C5.63097656 7.85105469 5.81273437 8.41695312 6 9 C5.34 9.66 4.68 10.32 4 11 C3.32880451 9.5437455 2.66318193 8.08492133 2 6.625 C1.62875 5.81289062 1.2575 5.00078125 0.875 4.1640625 C0 2 0 2 0 0 Z " fill="#511D22" transform="translate(14,213)"/>
<path d="M0 0 C1.231394 2.46278801 1.07159196 4.2795055 1 7 C0.01 6.67 -0.98 6.34 -2 6 C-2 6.99 -2 7.98 -2 9 C-2.99 8.67 -3.98 8.34 -5 8 C-3.35 5.36 -1.7 2.72 0 0 Z " fill="#F09426" transform="translate(235,279)"/>
<path d="M0 0 C0.66 0 1.32 0 2 0 C0.55049545 3.7910119 -1.15172566 7.3874638 -3 11 C-4 8 -4 8 -3.22265625 5.95703125 C-2.83980469 5.24933594 -2.45695312 4.54164063 -2.0625 3.8125 C-1.68222656 3.09707031 -1.30195313 2.38164062 -0.91015625 1.64453125 C-0.60980469 1.10183594 -0.30945313 0.55914062 0 0 Z " fill="#56262C" transform="translate(447,288)"/>
<path d="M0 0 C1.32 0.66 2.64 1.32 4 2 C3.67 3.32 3.34 4.64 3 6 C0.36 6 -2.28 6 -5 6 C-5 5.67 -5 5.34 -5 5 C-2.69 5 -0.38 5 2 5 C1.34 3.35 0.68 1.7 0 0 Z " fill="#741202" transform="translate(269,284)"/>
<path d="M0 0 C-1.55759343 0.53532823 -3.12138045 1.05265378 -4.6875 1.5625 C-5.55761719 1.85253906 -6.42773438 2.14257812 -7.32421875 2.44140625 C-10.24631074 3.05141961 -12.14400553 2.77703633 -15 2 C-15 1.67 -15 1.34 -15 1 C-13.25215171 0.63536268 -11.50159498 0.2836922 -9.75 -0.0625 C-8.28820312 -0.35833984 -8.28820312 -0.35833984 -6.796875 -0.66015625 C-4.131881 -0.98397535 -2.51128277 -0.85503199 0 0 Z " fill="#83464C" transform="translate(292,208)"/>
<path d="M0 0 C0.185625 0.9590625 0.185625 0.9590625 0.375 1.9375 C0.684375 2.9584375 0.684375 2.9584375 1 4 C1.66 4.33 2.32 4.66 3 5 C2.01 5.495 2.01 5.495 1 6 C-0.13350534 8.01669827 -0.13350534 8.01669827 -1 10 C-2.46726798 6.18510326 -1.43336419 3.70988378 0 0 Z " fill="#592731" transform="translate(244,181)"/>
<path d="M0 0 C3.45925163 1.2491742 6.14693203 2.67527795 9 5 C8.01 5.33 7.02 5.66 6 6 C5.34 5.67 4.68 5.34 4 5 C4 4.34 4 3.68 4 3 C3.34 3 2.68 3 2 3 C1.67 3.66 1.34 4.32 1 5 C0.67 3.35 0.34 1.7 0 0 Z " fill="#743B43" transform="translate(0,179)"/>
<path d="M0 0 C0.66 1.32 1.32 2.64 2 4 C2.66 3.01 3.32 2.02 4 1 C4.33 3.64 4.66 6.28 5 9 C3.0625 8.4375 3.0625 8.4375 1 7 C0.25 3.375 0.25 3.375 0 0 Z " fill="#653A41" transform="translate(247,159)"/>
<path d="M0 0 C0.33 0 0.66 0 1 0 C0.67 2.64 0.34 5.28 0 8 C-1.32 7.67 -2.64 7.34 -4 7 C-3.34 5.68 -2.68 4.36 -2 3 C-1.34 3 -0.68 3 0 3 C0 2.01 0 1.02 0 0 Z " fill="#551A24" transform="translate(253,182)"/>
<path d="M0 0 C0.99 0.33 1.98 0.66 3 1 C2.67 2.65 2.34 4.3 2 6 C1.34 6 0.68 6 0 6 C-0.38218767 4.34385343 -0.71395102 2.67542976 -1 1 C-0.67 0.67 -0.34 0.34 0 0 Z " fill="#421225" transform="translate(364,304)"/>
<path d="M0 0 C0.33 0.99 0.66 1.98 1 3 C1.99 3.33 2.98 3.66 4 4 C3.67 4.99 3.34 5.98 3 7 C1.35 7 -0.3 7 -2 7 C-2 6.34 -2 5.68 -2 5 C-1.34 4.67 -0.68 4.34 0 4 C0 2.68 0 1.36 0 0 Z " fill="#64151C" transform="translate(111,201)"/>
<path d="M0 0 C0 0.99 0 1.98 0 3 C-2.97 3 -5.94 3 -9 3 C-5.73209435 0.82139623 -3.91954654 0 0 0 Z " fill="#833842" transform="translate(338,194)"/>
<path d="M0 0 C0.66 0.33 1.32 0.66 2 1 C0.68 2.32 -0.64 3.64 -2 5 C-3.32 4.34 -4.64 3.68 -6 3 C-4.03533587 1.93224776 -2.03144641 0.93446535 0 0 Z " fill="#762B33" transform="translate(377,176)"/>
</svg>
